<mxfile host="Electron" agent="Mozilla/5.0 (Windows NT 10.0; Win64; x64) AppleWebKit/537.36 (KHTML, like Gecko) draw.io/24.7.17 Chrome/128.0.6613.36 Electron/32.0.1 Safari/537.36" version="24.7.17">
  <diagram id="C5RBs43oDa-KdzZeNtuy" name="Page-1">
    <mxGraphModel dx="1290" dy="655" grid="1" gridSize="10" guides="1" tooltips="1" connect="1" arrows="1" fold="1" page="1" pageScale="1" pageWidth="827" pageHeight="1169" math="0" shadow="0">
      <root>
        <mxCell id="WIyWlLk6GJQsqaUBKTNV-0" />
        <mxCell id="WIyWlLk6GJQsqaUBKTNV-1" parent="WIyWlLk6GJQsqaUBKTNV-0" />
        <mxCell id="wPZBfNxIu4Lczjp4vd2N-2" value="" style="edgeStyle=orthogonalEdgeStyle;rounded=0;orthogonalLoop=1;jettySize=auto;html=1;" parent="WIyWlLk6GJQsqaUBKTNV-1" source="wPZBfNxIu4Lczjp4vd2N-0" target="wPZBfNxIu4Lczjp4vd2N-1" edge="1">
          <mxGeometry relative="1" as="geometry" />
        </mxCell>
        <mxCell id="wPZBfNxIu4Lczjp4vd2N-0" value="START" style="ellipse;whiteSpace=wrap;html=1;" parent="WIyWlLk6GJQsqaUBKTNV-1" vertex="1">
          <mxGeometry x="354" y="30" width="120" height="80" as="geometry" />
        </mxCell>
        <mxCell id="wPZBfNxIu4Lczjp4vd2N-7" value="" style="edgeStyle=orthogonalEdgeStyle;rounded=0;orthogonalLoop=1;jettySize=auto;html=1;" parent="WIyWlLk6GJQsqaUBKTNV-1" source="wPZBfNxIu4Lczjp4vd2N-1" target="wPZBfNxIu4Lczjp4vd2N-6" edge="1">
          <mxGeometry relative="1" as="geometry" />
        </mxCell>
        <mxCell id="wPZBfNxIu4Lczjp4vd2N-1" value="Send login&lt;div&gt;credentials to&lt;div&gt;the backend&lt;/div&gt;&lt;/div&gt;&lt;div&gt;through axios&lt;/div&gt;" style="shape=parallelogram;perimeter=parallelogramPerimeter;whiteSpace=wrap;html=1;fixedSize=1;" parent="WIyWlLk6GJQsqaUBKTNV-1" vertex="1">
          <mxGeometry x="346" y="170" width="136" height="70" as="geometry" />
        </mxCell>
        <mxCell id="wPZBfNxIu4Lczjp4vd2N-13" value="" style="edgeStyle=orthogonalEdgeStyle;rounded=0;orthogonalLoop=1;jettySize=auto;html=1;" parent="WIyWlLk6GJQsqaUBKTNV-1" source="wPZBfNxIu4Lczjp4vd2N-6" target="wPZBfNxIu4Lczjp4vd2N-12" edge="1">
          <mxGeometry relative="1" as="geometry" />
        </mxCell>
        <mxCell id="wPZBfNxIu4Lczjp4vd2N-6" value="Are login&amp;nbsp;&lt;div&gt;credentials&amp;nbsp;&lt;span style=&quot;background-color: initial;&quot;&gt;valid?&lt;/span&gt;&lt;/div&gt;" style="rhombus;whiteSpace=wrap;html=1;" parent="WIyWlLk6GJQsqaUBKTNV-1" vertex="1">
          <mxGeometry x="349" y="320" width="129" height="105" as="geometry" />
        </mxCell>
        <mxCell id="wPZBfNxIu4Lczjp4vd2N-8" value="" style="endArrow=classic;html=1;rounded=0;" parent="WIyWlLk6GJQsqaUBKTNV-1" edge="1">
          <mxGeometry width="50" height="50" relative="1" as="geometry">
            <mxPoint x="478" y="372.23" as="sourcePoint" />
            <mxPoint x="548" y="372.23" as="targetPoint" />
          </mxGeometry>
        </mxCell>
        <mxCell id="wPZBfNxIu4Lczjp4vd2N-9" value="Send error&lt;div&gt;message from the backend&lt;/div&gt;" style="shape=parallelogram;perimeter=parallelogramPerimeter;whiteSpace=wrap;html=1;fixedSize=1;" parent="WIyWlLk6GJQsqaUBKTNV-1" vertex="1">
          <mxGeometry x="540" y="342" width="130" height="60" as="geometry" />
        </mxCell>
        <mxCell id="wPZBfNxIu4Lczjp4vd2N-10" value="No" style="text;html=1;align=center;verticalAlign=middle;resizable=0;points=[];autosize=1;strokeColor=none;fillColor=none;" parent="WIyWlLk6GJQsqaUBKTNV-1" vertex="1">
          <mxGeometry x="490" y="342" width="40" height="30" as="geometry" />
        </mxCell>
        <mxCell id="wPZBfNxIu4Lczjp4vd2N-16" value="" style="edgeStyle=orthogonalEdgeStyle;rounded=0;orthogonalLoop=1;jettySize=auto;html=1;" parent="WIyWlLk6GJQsqaUBKTNV-1" source="wPZBfNxIu4Lczjp4vd2N-12" target="wPZBfNxIu4Lczjp4vd2N-15" edge="1">
          <mxGeometry relative="1" as="geometry" />
        </mxCell>
        <mxCell id="wPZBfNxIu4Lczjp4vd2N-12" value="Create a refresh&lt;div&gt;and access token&lt;/div&gt;&lt;div&gt;using jwt&lt;/div&gt;" style="shape=parallelogram;perimeter=parallelogramPerimeter;whiteSpace=wrap;html=1;fixedSize=1;" parent="WIyWlLk6GJQsqaUBKTNV-1" vertex="1">
          <mxGeometry x="351" y="470" width="126" height="60" as="geometry" />
        </mxCell>
        <mxCell id="wPZBfNxIu4Lczjp4vd2N-14" value="Yes" style="text;html=1;align=center;verticalAlign=middle;resizable=0;points=[];autosize=1;strokeColor=none;fillColor=none;" parent="WIyWlLk6GJQsqaUBKTNV-1" vertex="1">
          <mxGeometry x="410" y="428" width="40" height="30" as="geometry" />
        </mxCell>
        <mxCell id="wPZBfNxIu4Lczjp4vd2N-15" value="Send a response&lt;div&gt;back with refresh&lt;/div&gt;&lt;div&gt;and access token&lt;/div&gt;" style="shape=parallelogram;perimeter=parallelogramPerimeter;whiteSpace=wrap;html=1;fixedSize=1;" parent="WIyWlLk6GJQsqaUBKTNV-1" vertex="1">
          <mxGeometry x="346" y="585" width="136" height="60" as="geometry" />
        </mxCell>
      </root>
    </mxGraphModel>
  </diagram>
</mxfile>
